<?xml version="1.0" encoding="UTF-8"?>
<svg xmlns="http://www.w3.org/2000/svg" xmlns:xlink="http://www.w3.org/1999/xlink" width="434pt" height="91pt" viewBox="0 0 434 91" version="1.1">
<g id="surface3">
<path style=" stroke:none;fill-rule:evenodd;fill:rgb(80%,0%,0%);fill-opacity:1;" d="M 273.164062 79.195312 C 284.226562 79.195312 291.960938 71.242188 291.960938 59.734375 C 291.960938 48.226562 284.226562 40.335938 273.164062 40.335938 C 262.101562 40.335938 254.457031 48.234375 254.457031 59.8125 C 254.457031 71.394531 262.171875 79.242188 273.164062 79.242188 Z M 273.164062 28.554688 C 290.40625 28.554688 304.40625 41.6875 304.40625 59.78125 C 304.40625 77.875 290.40625 91 273.164062 91 C 255.921875 91 242.011719 77.859375 242.011719 59.757812 C 242.011719 41.65625 255.90625 28.53125 273.164062 28.53125 Z M 24.113281 79.738281 L 11.933594 79.738281 L 11.933594 62.894531 L 24.003906 62.894531 C 29.414062 62.894531 33.65625 66.238281 33.65625 71.289062 C 33.65625 76.339844 29.769531 79.742188 24.113281 79.742188 Z M 11.941406 39.894531 L 22.480469 39.894531 C 27.378906 39.894531 30.808594 42.742188 30.808594 46.757812 C 30.808594 50.621094 27.382812 53.710938 22.480469 53.710938 L 11.933594 53.710938 Z M 34.492188 57.320312 L 34.492188 57.226562 C 38.515625 56.023438 42.8125 51.066406 42.8125 45.308594 C 42.8125 36.574219 35.515625 29.785156 24.878906 29.785156 L 4.128906 29.785156 C 1.855469 29.789062 0.0117188 31.628906 0 33.902344 L 0 89.800781 L 25.214844 89.800781 C 39.386719 89.800781 46.136719 81.910156 46.136719 71.785156 C 46.136719 64.847656 40.207031 58.582031 34.46875 57.3125 Z M 146.609375 58.6875 L 135.976562 58.6875 L 135.976562 40.941406 L 146.609375 40.941406 C 153.128906 40.941406 156.269531 45.144531 156.269531 49.859375 C 156.308594 54.402344 153.21875 58.6875 146.613281 58.6875 Z M 157.328125 67.082031 C 164.625 64.09375 168.699219 58.085938 168.699219 49.859375 C 168.699219 37.796875 159.847656 29.753906 145.105469 29.753906 L 128.210938 29.753906 C 125.929688 29.730469 124.066406 31.558594 124.042969 33.839844 L 124.042969 89.800781 L 135.976562 89.800781 L 135.976562 69.285156 L 145.75 69.285156 L 157.683594 89.785156 L 171.054688 89.785156 L 157.328125 67.085938 Z M 341.078125 58.6875 L 330.417969 58.6875 L 330.417969 40.941406 L 341.046875 40.941406 C 347.578125 40.941406 350.742188 45.144531 350.742188 49.859375 C 350.773438 54.398438 347.6875 58.6875 341.082031 58.6875 Z M 351.8125 67.082031 C 359.09375 64.09375 363.125 58.085938 363.125 49.859375 C 363.125 37.796875 354.273438 29.753906 339.542969 29.753906 L 322.644531 29.753906 C 321.554688 29.75 320.503906 30.183594 319.730469 30.953125 C 318.957031 31.722656 318.519531 32.769531 318.519531 33.863281 L 318.519531 89.800781 L 330.417969 89.800781 L 330.417969 69.285156 L 340.191406 69.285156 L 352.140625 89.816406 L 365.515625 89.816406 Z M 209.578125 79.738281 L 197.386719 79.738281 L 197.386719 62.894531 L 209.457031 62.894531 C 214.863281 62.894531 219.0625 66.238281 219.0625 71.289062 C 219.0625 76.339844 215.234375 79.742188 209.578125 79.742188 Z M 197.421875 39.894531 L 207.976562 39.894531 C 212.859375 39.894531 216.296875 42.742188 216.296875 46.757812 C 216.296875 50.621094 212.859375 53.710938 207.976562 53.710938 L 197.386719 53.710938 Z M 219.957031 57.320312 L 219.957031 57.226562 C 223.980469 56.027344 228.277344 51.066406 228.277344 45.308594 C 228.277344 36.574219 220.988281 29.789062 210.351562 29.789062 L 189.617188 29.789062 C 187.34375 29.773438 185.488281 31.605469 185.472656 33.882812 L 185.472656 89.800781 L 210.695312 89.800781 C 224.839844 89.800781 231.617188 81.910156 231.617188 71.785156 C 231.617188 64.847656 225.703125 58.582031 219.949219 57.3125 Z M 74.390625 67.773438 L 80.304688 52.601562 C 81.585938 49.253906 83.128906 44.285156 83.21875 44.285156 L 83.296875 44.285156 C 83.378906 44.285156 84.90625 49.257812 86.21875 52.601562 L 92.132812 67.777344 L 74.394531 67.777344 Z M 90.058594 32.683594 C 89.519531 30.960938 87.925781 29.789062 86.121094 29.796875 L 80.410156 29.796875 C 78.753906 29.789062 77.257812 30.773438 76.605469 32.296875 L 52.917969 89.816406 L 65.789062 89.816406 L 70.238281 78.308594 L 96.285156 78.308594 L 100.742188 89.816406 L 113.613281 89.816406 Z M 394.785156 67.773438 L 400.707031 52.601562 C 401.992188 49.257812 403.523438 44.285156 403.617188 44.285156 L 403.707031 44.285156 C 403.777344 44.285156 405.316406 49.257812 406.617188 52.601562 L 412.539062 67.777344 L 394.78125 67.777344 Z M 410.355469 32.398438 C 409.734375 30.828125 408.214844 29.796875 406.523438 29.796875 L 400.785156 29.796875 C 399.101562 29.804688 397.589844 30.832031 396.964844 32.398438 L 373.335938 89.816406 L 386.207031 89.816406 L 390.664062 78.308594 L 416.660156 78.308594 L 421.128906 89.816406 L 434 89.816406 L 410.351562 32.398438 Z M 410.355469 32.398438 "/>
<path style=" stroke:none;fill-rule:evenodd;fill:rgb(40%,80%,0%);fill-opacity:1;" d="M 185.472656 24.585938 C 185.472656 24.585938 182.535156 3.488281 210.070312 0 C 210.070312 0 208.578125 21.550781 185.472656 24.585938 Z M 185.472656 24.585938 "/>
</g>
</svg>
