<svg class="b-icon">
    <path fill-rule="evenodd" clip-rule="evenodd"
          d="M273.164 79.194c11.063 0 18.795-7.953 18.795-19.46 0-11.508-7.733-19.397-18.796-19.397-11.063 0-18.707 7.897-18.707 19.477s7.716 19.428 18.707 19.428v-.048zm0-50.638c17.242 0 31.242 13.13 31.242 31.226 0 18.093-14 31.218-31.242 31.218S242.01 77.86 242.01 59.758s13.896-31.226 31.154-31.226v.024zM24.114 79.74H11.932V62.894h12.07c5.414 0 9.655 3.346 9.655 8.397 0 5.05-3.887 8.45-9.543 8.45zM11.94 39.896h10.54c4.9 0 8.328 2.846 8.328 6.86 0 3.867-3.427 6.955-8.327 6.955H11.933l.01-13.815zM34.494 57.32v-.095c4.022-1.2 8.32-6.16 8.32-11.918 0-8.733-7.298-15.52-17.935-15.52H4.128A4.135 4.135 0 0 0 0 33.904V89.8h25.216c14.17 0 20.92-7.888 20.92-18.013 0-6.94-5.93-13.204-11.667-14.474l.023.008zM146.61 58.688h-10.635V40.94h10.636c6.518 0 9.657 4.206 9.657 8.92.04 4.542-3.05 8.828-9.656 8.828zm10.718 8.395c7.298-2.99 11.37-8.998 11.37-17.224 0-12.064-8.852-20.105-23.592-20.105H128.21a4.128 4.128 0 0 0-4.168 4.085V89.8h11.933V69.287h9.775l11.933 20.498h13.372l-13.727-22.7zM341.08 58.688h-10.662V40.94h10.63c6.53 0 9.693 4.206 9.693 8.92.034 4.54-3.055 8.828-9.66 8.828zm10.732 8.395c7.28-2.99 11.312-8.998 11.312-17.224 0-12.064-8.85-20.105-23.582-20.105h-16.896a4.115 4.115 0 0 0-4.127 4.108V89.8h11.898V69.287h9.775l11.948 20.53h13.374l-13.702-22.734zM209.578 79.74h-12.19V62.894h12.07c5.406 0 9.606 3.346 9.606 8.397 0 5.05-3.83 8.45-9.486 8.45zM197.42 39.896h10.556c4.885 0 8.32 2.846 8.32 6.86 0 3.867-3.435 6.955-8.32 6.955h-10.588l.032-13.815zm22.537 17.426v-.095c4.023-1.2 8.32-6.16 8.32-11.918 0-8.733-7.29-15.52-17.927-15.52h-20.734a4.118 4.118 0 0 0-4.143 4.092V89.8h25.223c14.144 0 20.92-7.888 20.92-18.013 0-6.94-5.914-13.204-11.668-14.474l.01.008zM74.392 67.775L80.306 52.6c1.28-3.345 2.824-8.314 2.912-8.314h.08c.08 0 1.61 4.97 2.922 8.315l5.913 15.175h-17.74zm15.665-35.093a4.11 4.11 0 0 0-3.934-2.887H80.41a4.13 4.13 0 0 0-3.805 2.5L52.918 89.817H65.79l4.45-11.507h26.044l4.458 11.507h12.873L90.057 32.682zM394.784 67.775l5.922-15.174c1.287-3.345 2.817-8.314 2.913-8.314h.087c.073 0 1.61 4.97 2.913 8.315l5.92 15.175h-17.756zm15.57-35.375a4.12 4.12 0 0 0-3.83-2.605h-5.737a4.135 4.135 0 0 0-3.822 2.605l-23.63 57.417h12.873l4.457-11.507h25.996l4.466 11.507H434L410.353 32.4z"
          fill="#C00"></path>
    <path fill-rule="evenodd" clip-rule="evenodd"
          d="M185.472 24.584S182.536 3.49 210.07 0c0 0-1.49 21.552-24.598 24.584z" fill="#6C0"></path>
</svg>